<svg xmlns="http://www.w3.org/2000/svg" viewBox="0 0 512 512" style="enable-background:new 0 0 512 512" xml:space="preserve"><style>.st7{fill:#b9bdc2}.st16{fill:#a32929}</style><circle cx="256.4" cy="254.8" style="fill:#75a897" r="256" id="ICON"/><g id="Layer_8"><path d="M257.1 80C193 80 141 132 141 196.1 141 260.3 257.1 422 257.1 422s116.1-161.7 116.1-225.9C373.3 132 321.3 80 257.1 80zm0 208.5c-50.9 0-92.4-41.4-92.4-92.4 0-50.9 41.4-92.4 92.4-92.4 50.9 0 92.4 41.4 92.4 92.4 0 51-41.4 92.4-92.4 92.4z" style="fill:#c93a3a"/><path class="st7" d="M262.2 179.5h57.9V241h-57.9z"/><path style="fill:#c9402e" d="m328 181.7-38.9-47.8h-60.6l38.9 47.8z"/><path style="fill:#fff" d="M266.8 187.2h53.4V241h-53.4z"/><path class="st7" d="m228.6 138-35.4 41.5V241h70.7v-61.5z"/><path style="fill:#1f3049" d="M217.8 210.6h21.5V241h-21.5z"/><path class="st16" d="M188.5 181.7h6.7l33.4-39.2 33.4 39.2h7.3l-40.7-47.8-40.8 47.9c.2-.1.5-.1.7-.1z"/><path style="fill:#5082a9" d="M214.9 171.5h27.3v27.3h-27.3z"/><path class="st7" d="M226.9 168.5h3.4v33.3h-3.4z"/><path class="st7" d="M211.9 183.5h33.3v3.4h-33.3z"/><path class="st16" d="M212.4 199.5h32.4v4.6h-32.4z"/></g></svg>